<svg width="177" height="68" viewBox="0 0 177 68" fill="none" xmlns="http://www.w3.org/2000/svg">
<g clip-path="url(#clip0)">
<path d="M162.13 16.1699C153 17.3999 144.25 25.4999 142.64 34.2399C141.03 42.9799 147.15 49.0899 156.29 47.8599C160.326 47.2554 164.125 45.5768 167.29 42.9999L168.29 42.1899L163.16 37.0699L162.37 37.6199C161.025 38.569 159.477 39.1921 157.85 39.4399C155.17 39.7999 152.95 38.7899 151.93 36.8599L174.56 33.8599L174.87 33.0399C175.272 31.9995 175.58 30.9252 175.79 29.8299C177.39 21.0499 171.27 14.9399 162.13 16.1699ZM152.51 30.2299C152.775 29.776 153.073 29.3416 153.4 28.9299C153.52 28.7899 153.65 28.6499 153.77 28.4999C153.89 28.3499 153.98 28.2499 154.1 28.1299C154.22 28.0099 154.46 27.7599 154.65 27.5799C154.905 27.3397 155.172 27.1128 155.45 26.8999L155.81 26.6099C156 26.4699 156.2 26.3399 156.4 26.2099L156.8 25.9599C157 25.8399 157.19 25.7399 157.4 25.6299L157.86 25.4099C158.046 25.3197 158.236 25.2396 158.43 25.1699C158.63 25.0899 158.83 25.0199 159.03 24.9599L159.49 24.8099C159.856 24.7174 160.226 24.6439 160.6 24.5899C160.958 24.5422 161.319 24.5188 161.68 24.5199H162.11L162.67 24.5799C162.838 24.6036 163.005 24.637 163.17 24.6799L163.57 24.7799L164.08 24.9599L164.4 25.1199C164.562 25.1933 164.719 25.2768 164.87 25.3699L165.14 25.5699C165.344 25.7232 165.538 25.8903 165.72 26.0699C165.85 26.2099 165.98 26.3399 166.1 26.4899C166.22 26.6399 166.23 26.6999 166.29 26.7999C166.35 26.8999 166.45 27.0299 166.52 27.1499C166.714 27.5031 166.861 27.8794 166.96 28.2699L152.51 30.2299Z" fill="#5332A5"/>
<path d="M136.4 1.25L127.09 51.77L136.41 50.52L145.72 0L136.4 1.25Z" fill="#5332A5"/>
<path d="M113.02 22.76C103.89 23.98 95.15 32.0901 93.54 40.8301C91.93 49.5701 98.05 55.67 107.18 54.44C116.31 53.21 125.06 45.11 126.67 36.37C128.28 27.63 122.19 21.58 113.02 22.76ZM117.87 37.56C117.11 41.65 113.02 45.4501 108.73 46.0301C104.44 46.6101 101.58 43.74 102.34 39.64C103.1 35.54 107.19 31.75 111.47 31.17C115.75 30.59 118.65 33.4601 117.9 37.5801L117.87 37.56Z" fill="#5332A5"/>
<path d="M77.43 27.58C72.9063 28.2927 68.7143 30.3887 65.43 33.58C63.03 31.09 59.34 29.99 55.13 30.58C52.6694 30.9448 50.2968 31.7583 48.13 32.98L48.3 31.98L39.5 33.16L33.76 64.32L42.56 63.14L45.66 46.3C46.1185 44.4365 47.113 42.7482 48.5206 41.4437C49.9281 40.1392 51.6871 39.2758 53.58 38.96C57.29 38.46 59.78 40.96 59.12 44.49L56.02 61.32L64.82 60.14L67.92 43.3C68.3785 41.4365 69.373 39.7482 70.7806 38.4437C72.1881 37.1392 73.9471 36.2758 75.84 35.96C79.55 35.46 82.04 37.96 81.39 41.49L78.28 58.33L87.08 57.14L90.19 40.31C91.74 32.12 86.02 26.39 77.43 27.58Z" fill="#5332A5"/>
<path d="M19.75 35.31C10.62 36.54 1.87002 44.65 0.260017 53.38C-1.34998 62.11 4.77001 68.2301 13.91 67.0001C17.9461 66.3956 21.7454 64.7169 24.91 62.14L25.91 61.33L20.78 56.21L19.99 56.76C18.6485 57.7157 17.0994 58.3395 15.47 58.58C12.79 58.94 10.57 57.9301 9.55001 56.0001L32.18 53.0001L32.49 52.18C32.8918 51.1396 33.1997 50.0654 33.41 48.9701C35.02 40.1901 28.89 34.08 19.75 35.31ZM10.13 49.3701C10.3932 48.9179 10.6907 48.4866 11.02 48.08C11.14 47.93 11.27 47.7901 11.39 47.6501C11.51 47.51 11.6 47.39 11.71 47.27C11.82 47.15 12.08 46.9001 12.27 46.7201C12.46 46.5401 12.79 46.26 13.06 46.04L13.43 45.7501C13.62 45.6101 13.82 45.48 14.02 45.35L14.42 45.1L15.01 44.7801L15.48 44.55C15.67 44.47 15.85 44.3801 16.04 44.3101C16.23 44.2401 16.45 44.17 16.65 44.1L17.11 43.96C17.4747 43.8595 17.8454 43.7827 18.22 43.73C18.578 43.6824 18.9388 43.659 19.3 43.66H19.73C19.9141 43.6668 20.0977 43.6835 20.28 43.71L20.79 43.8101L21.19 43.92C21.3603 43.9695 21.5273 44.0296 21.69 44.1C21.7994 44.144 21.9063 44.1941 22.01 44.2501C22.1741 44.3253 22.3343 44.4087 22.49 44.5001L22.76 44.71C22.9668 44.8604 23.1608 45.0277 23.34 45.21C23.4743 45.343 23.6012 45.4832 23.72 45.63C23.7892 45.7262 23.8527 45.8264 23.91 45.93C23.99 46.05 24.07 46.1601 24.14 46.2801C24.3352 46.6289 24.4832 47.0022 24.58 47.39L10.13 49.3701Z" fill="#5332A5"/>
</g>
<defs>
<clipPath id="clip0">
<rect width="176.03" height="67.16" fill="white"/>
</clipPath>
</defs>
</svg>
