<svg width="24" height="24" viewBox="0 0 24 24" fill="none" xmlns="http://www.w3.org/2000/svg">
<path opacity="0.35" d="M20 16H4.319C4.143 16 4 15.857 4 15.681V7C4 5.895 4.895 5 6 5H18C19.105 5 20 5.895 20 7V16Z" fill="#050519"/>
<path d="M12 20C11.448 20 11 19.552 11 19V17C11 16.448 11.448 16 12 16C12.552 16 13 16.448 13 17V19C13 19.552 12.552 20 12 20Z" fill="#050519"/>
<path d="M13.541 5.00004H15.583L15.269 3.47304C15.158 2.93204 14.629 2.58204 14.088 2.69504C13.547 2.80604 13.198 3.33504 13.31 3.87604L13.541 5.00004Z" fill="#050519"/>
<path d="M17.843 16H15.801L16.731 20.527C16.828 21 17.245 21.326 17.71 21.326C17.776 21.326 17.844 21.32 17.912 21.305C18.453 21.194 18.802 20.665 18.69 20.124L17.843 16Z" fill="#050519"/>
<path d="M20 17H4C3.448 17 3 16.552 3 16C3 15.448 3.448 15 4 15H20C20.552 15 21 15.448 21 16C21 16.552 20.552 17 20 17Z" fill="#050519"/>
<path d="M13 8C13 8.552 13.448 9 14 9C14.552 9 15 8.552 15 8C15 7.448 14.552 7 14 7C13.448 7 13 7.448 13 8Z" fill="#050519"/>
<path d="M7 13.375C7 13.718 7.28 14 7.625 14H16.375C16.72 14 17 13.723 17 13.375C17 12.522 16.528 10 15.5 10C14.992 10 14.205 11 13.5 11C12.1 11 10.75 8 9.5 8C8.25 8 7 11.727 7 13.375Z" fill="#050519"/>
<path d="M10.4591 4.99991L10.6901 3.87491C10.8011 3.33391 10.4531 2.80591 9.91209 2.69391C9.37109 2.57891 8.84209 2.93091 8.73109 3.47191L8.41809 4.99991H10.4591Z" fill="#050519"/>
<path d="M6.15706 16L5.31006 20.125C5.19906 20.666 5.54706 21.194 6.08806 21.306C6.15606 21.32 6.22306 21.327 6.29006 21.327C6.75506 21.327 7.17106 21.001 7.26906 20.528L8.19906 16H6.15706Z" fill="#050519"/>
</svg>
