<svg width="24" height="24" viewBox="0 0 24 24" fill="none" xmlns="http://www.w3.org/2000/svg">
<path d="M17 15.0001V6.0841C17 5.21009 17.515 4.3671 18.348 4.1031C19.729 3.6651 21 4.68409 21 6.00009V15.0001H17Z" fill="black"/>
<path d="M22.798 14.182L19.713 17.296C19.32 17.692 18.68 17.692 18.287 17.296L15.202 14.182C14.768 13.744 15.079 13 15.695 13H22.304C22.921 13 23.232 13.744 22.798 14.182Z" fill="black"/>
<path opacity="0.35" d="M13 17H3C1.895 17 1 17.895 1 19C1 20.105 1.895 21 3 21H13C14.105 21 15 20.105 15 19C15 17.895 14.105 17 13 17Z" fill="black"/>
<path opacity="0.35" d="M10 10H3C1.895 10 1 10.895 1 12C1 13.105 1.895 14 3 14H10C11.105 14 12 13.105 12 12C12 10.895 11.105 10 10 10Z" fill="black"/>
<path opacity="0.35" d="M8 3H3C1.895 3 1 3.895 1 5C1 6.105 1.895 7 3 7H8C9.105 7 10 6.105 10 5C10 3.895 9.105 3 8 3Z" fill="black"/>
</svg>
