<svg width="11" height="11" viewBox="0 0 11 11" fill="none" xmlns="http://www.w3.org/2000/svg">
<path d="M3.75996 0.501221C2.14094 0.501221 0.823486 1.81868 0.823486 3.43769V7.50357C0.823486 9.12259 2.14094 10.44 3.75996 10.44H7.82584C9.44485 10.44 10.7623 9.12259 10.7623 7.50357V3.43769C10.7623 1.81868 9.44485 0.501221 7.82584 0.501221H3.75996ZM3.75996 0.952985H7.82584C9.20067 0.952985 10.3105 2.06286 10.3105 3.43769V7.50357C10.3105 8.8784 9.20067 9.98828 7.82584 9.98828H3.75996C2.38513 9.98828 1.27525 8.8784 1.27525 7.50357V3.43769C1.27525 2.06286 2.38513 0.952985 3.75996 0.952985ZM8.50349 2.30828C8.38367 2.30828 8.26876 2.35588 8.18404 2.4406C8.09932 2.52532 8.05172 2.64023 8.05172 2.76004C8.05172 2.87986 8.09932 2.99477 8.18404 3.07949C8.26876 3.16421 8.38367 3.21181 8.50349 3.21181C8.6233 3.21181 8.73821 3.16421 8.82293 3.07949C8.90765 2.99477 8.95525 2.87986 8.95525 2.76004C8.95525 2.64023 8.90765 2.52532 8.82293 2.4406C8.73821 2.35588 8.6233 2.30828 8.50349 2.30828ZM5.7929 2.98593C4.42331 2.98593 3.30819 4.10104 3.30819 5.47063C3.30819 6.84022 4.42331 7.95534 5.7929 7.95534C7.16249 7.95534 8.2776 6.84022 8.2776 5.47063C8.2776 4.10104 7.16249 2.98593 5.7929 2.98593ZM5.7929 3.43769C6.91834 3.43769 7.82584 4.34519 7.82584 5.47063C7.82584 6.59607 6.91834 7.50357 5.7929 7.50357C4.66746 7.50357 3.75996 6.59607 3.75996 5.47063C3.75996 4.34519 4.66746 3.43769 5.7929 3.43769Z" fill="#050519"/>
</svg>
