<svg width="10" height="11" viewBox="0 0 10 11" fill="none" xmlns="http://www.w3.org/2000/svg">
<path d="M1.17909 0.785889C0.557822 0.785889 0.0496826 1.29403 0.0496826 1.9153V9.14354C0.0496826 9.76481 0.557822 10.2729 1.17909 10.2729H8.40733C9.0286 10.2729 9.53674 9.76481 9.53674 9.14354V1.9153C9.53674 1.29403 9.0286 0.785889 8.40733 0.785889H1.17909ZM1.17909 1.23765H8.40733C8.78491 1.23765 9.08498 1.53772 9.08498 1.9153V9.14354C9.08498 9.52112 8.78491 9.82118 8.40733 9.82118H1.17909C0.801515 9.82118 0.501447 9.52112 0.501447 9.14354V1.9153C0.501447 1.53772 0.801515 1.23765 1.17909 1.23765ZM5.0288 2.14118C4.96897 2.14119 4.91159 2.16493 4.86924 2.20719C4.82689 2.24946 4.80304 2.30679 4.80292 2.36662C4.80292 2.36662 4.80044 3.46785 4.79806 4.57162C4.79687 5.12351 4.79543 5.67597 4.79454 6.09192C4.79365 6.50787 4.79321 6.77106 4.79321 6.79295C4.79321 7.20298 4.42083 7.53809 3.99645 7.53809C3.57545 7.53809 3.23939 7.20159 3.23939 6.78059C3.23939 6.3596 3.57545 6.02354 3.99645 6.02354C4.01071 6.02354 4.03945 6.02822 4.08865 6.03412C4.12038 6.03793 4.15256 6.03496 4.18306 6.0254C4.21355 6.01585 4.24168 5.99994 4.26557 5.97872C4.28946 5.95749 4.30858 5.93144 4.32166 5.90228C4.33474 5.87312 4.34148 5.84152 4.34145 5.80957V4.86059C4.34144 4.80313 4.31954 4.74783 4.2802 4.70595C4.24086 4.66407 4.18703 4.63875 4.12968 4.63515C4.09448 4.63294 4.05019 4.62854 3.99645 4.62854C2.81067 4.62854 1.84439 5.59482 1.84439 6.78059C1.84439 7.96637 2.81067 8.93265 3.99645 8.93265C5.18219 8.93265 6.14851 7.96637 6.14851 6.78059V4.73662C6.47708 4.99942 6.88658 5.16589 7.3388 5.16589C7.40048 5.16589 7.45914 5.16223 7.51527 5.15706C7.57136 5.15189 7.6235 5.12594 7.66145 5.08432C7.6994 5.0427 7.72043 4.98839 7.72042 4.93207V3.87721C7.72045 3.82011 7.69885 3.76511 7.65997 3.72328C7.62109 3.68145 7.56782 3.6559 7.51086 3.65177C6.80054 3.60081 6.2343 3.04747 6.16042 2.34368C6.15463 2.28814 6.12848 2.23672 6.08702 2.19932C6.04555 2.16193 5.9917 2.14122 5.93586 2.14118H5.0288ZM5.25424 2.59295H5.76954C5.9337 3.33807 6.51596 3.90632 7.26865 4.04883V4.69604C6.78552 4.6715 6.36117 4.43049 6.11145 4.05059C6.08474 4.00994 6.04561 3.97899 5.9999 3.96235C5.95419 3.94572 5.90433 3.94428 5.85773 3.95826C5.81114 3.97224 5.7703 4.00089 5.74129 4.03994C5.71229 4.07899 5.69666 4.12636 5.69674 4.17501V6.78059C5.69674 7.72218 4.93806 8.48089 3.99645 8.48089C3.05486 8.48089 2.29615 7.72218 2.29615 6.78059C2.29615 5.87695 3.00108 5.15969 3.88968 5.10192V5.59339C3.27673 5.65043 2.78762 6.15336 2.78762 6.78059C2.78762 7.44564 3.3314 7.98986 3.99645 7.98986C4.65811 7.98986 5.24498 7.46896 5.24498 6.79295C5.24498 6.804 5.2454 6.50875 5.2463 6.0928C5.24718 5.67685 5.24864 5.12439 5.24983 4.57251C5.25195 3.58158 5.25383 2.78477 5.25424 2.59295Z" fill="#050519"/>
</svg>
