<svg width="12" height="10" viewBox="0 0 12 10" fill="none" xmlns="http://www.w3.org/2000/svg">
<path d="M7.87552 0.117676C6.52464 0.117676 5.42611 1.21621 5.42611 2.56709C5.42611 2.64826 5.4464 2.72768 5.45434 2.80709C3.78405 2.64738 2.30699 1.84268 1.30375 0.611793C1.25699 0.552676 1.18464 0.520911 1.10875 0.526205C1.03375 0.531499 0.966696 0.574735 0.929637 0.640029C0.718755 1.00268 0.597872 1.42003 0.597872 1.86826C0.597872 2.41091 0.79199 2.90768 1.09199 3.31532C1.03375 3.28973 0.970225 3.27562 0.915519 3.24473C0.845813 3.20768 0.76199 3.20944 0.694049 3.25003C0.626107 3.29062 0.584637 3.36385 0.583755 3.44238V3.47062C0.583755 4.30268 1.01434 5.02532 1.64964 5.46826C1.64258 5.46738 1.63552 5.47003 1.62846 5.46826C1.55081 5.45503 1.47228 5.48238 1.42023 5.5415C1.36817 5.60062 1.3514 5.68268 1.37434 5.75768C1.6267 6.54209 2.27081 7.14121 3.06846 7.36003C2.43317 7.73768 1.6964 7.96003 0.901402 7.96003C0.729343 7.96003 0.564343 7.95121 0.400225 7.93179C0.294343 7.91768 0.192872 7.97944 0.157578 8.08003C0.121402 8.18062 0.161107 8.29268 0.25199 8.34826C1.27111 9.00209 2.48081 9.38591 3.7814 9.38591C5.88934 9.38591 7.54287 8.50532 8.65199 7.24709C9.76111 5.98885 10.339 4.35473 10.339 2.82826C10.339 2.76385 10.3338 2.70121 10.332 2.63768C10.7458 2.32091 11.1155 1.94944 11.4049 1.51532C11.4623 1.4315 11.4561 1.31944 11.3899 1.24179C11.3246 1.16415 11.2143 1.14032 11.1226 1.18356C11.0061 1.23562 10.8702 1.24091 10.7485 1.28238C10.909 1.06797 11.0467 0.836793 11.1296 0.576499C11.1579 0.487382 11.127 0.38944 11.0538 0.331205C10.9805 0.273852 10.8782 0.266793 10.7979 0.315323C10.4123 0.543852 9.98523 0.70444 9.53434 0.802382C9.0967 0.39297 8.52052 0.117676 7.87552 0.117676ZM7.87552 0.56944C8.4517 0.56944 8.97228 0.815617 9.3367 1.20473C9.3914 1.26121 9.4717 1.28503 9.54846 1.26826C9.84317 1.21003 10.1229 1.12444 10.3955 1.01415C10.2385 1.22591 10.0443 1.40679 9.8167 1.54356C9.71346 1.59385 9.66493 1.71297 9.70287 1.8215C9.73993 1.92915 9.85287 1.99179 9.96493 1.96709C10.1908 1.93973 10.392 1.84797 10.6073 1.79062C10.414 1.99973 10.2023 2.18856 9.97199 2.35532C9.90934 2.40121 9.87493 2.47532 9.88023 2.55297C9.88375 2.64473 9.88728 2.73562 9.88728 2.82826C9.88728 4.24003 9.34552 5.77268 8.31317 6.94356C7.28081 8.11444 5.76493 8.93415 3.7814 8.93415C2.88052 8.93415 2.02993 8.73473 1.2614 8.38356C2.21434 8.31032 3.09317 7.97326 3.80258 7.4165C3.8767 7.35738 3.90581 7.25856 3.87581 7.16856C3.84581 7.07856 3.76287 7.01679 3.66846 7.01415C2.92375 7.00091 2.29993 6.56768 1.96728 5.95532C1.97964 5.95532 1.99023 5.95532 2.00258 5.95532C2.22581 5.95532 2.4464 5.92709 2.65199 5.87062C2.75081 5.8415 2.81875 5.74973 2.81523 5.6465C2.8117 5.54326 2.73846 5.45503 2.63787 5.43297C1.83405 5.27062 1.2314 4.61591 1.09199 3.80238C1.31964 3.88091 1.55258 3.94268 1.80493 3.95062C1.90817 3.95679 2.0017 3.89238 2.03346 3.79444C2.06523 3.6965 2.0264 3.58885 1.93905 3.53415C1.40258 3.17503 1.04964 2.56356 1.04964 1.86826C1.04964 1.61062 1.1167 1.37415 1.20493 1.14826C2.33434 2.38797 3.91552 3.21121 5.7014 3.30121C5.77199 3.30473 5.84081 3.27562 5.8867 3.22179C5.93258 3.16709 5.95022 3.09473 5.93434 3.02591C5.89993 2.87944 5.87787 2.72415 5.87787 2.56709C5.87787 1.46062 6.76905 0.56944 7.87552 0.56944Z" fill="#050519"/>
</svg>
