<svg width="11" height="9" viewBox="0 0 11 9" fill="none" xmlns="http://www.w3.org/2000/svg">
<path d="M5.6579 0.856445C4.16672 0.856445 2.76643 0.969386 2.02084 1.12733C1.52407 1.24027 1.09437 1.57909 1.00437 2.0988C0.914369 2.64056 0.823486 3.45409 0.823486 4.47056C0.823486 5.48703 0.913486 6.27762 1.02643 6.84233C1.11731 7.33909 1.54613 7.70086 2.0429 7.8138C2.83437 7.97174 4.18878 8.08468 5.67996 8.08468C7.17113 8.08468 8.52555 7.97174 9.31613 7.8138C9.81378 7.70086 10.2426 7.36203 10.3326 6.84233C10.4235 6.27762 10.5364 5.46497 10.5585 4.4485C10.5585 3.43203 10.4455 2.6185 10.3326 2.0538C10.2426 1.55703 9.81378 1.19527 9.31613 1.08233C8.52555 0.969386 7.14819 0.856445 5.6579 0.856445ZM5.6579 1.30821C7.28407 1.30821 8.59349 1.44321 9.22613 1.55615C9.56496 1.64703 9.83584 1.87292 9.88084 2.16674C10.0167 2.88939 10.1067 3.65792 10.1067 4.4485C10.0847 5.41909 9.97172 6.20968 9.88084 6.77439C9.81378 7.20321 9.36202 7.33909 9.22613 7.38497C8.4126 7.54292 7.05731 7.65497 5.70202 7.65497C4.34672 7.65497 2.96937 7.56497 2.17878 7.38497C1.83996 7.29409 1.56907 7.06821 1.52407 6.77439C1.34319 6.14174 1.27525 5.30615 1.27525 4.47056C1.27525 3.43115 1.36613 2.6635 1.45613 2.18968C1.52407 1.75997 1.9979 1.62409 2.11084 1.57909C2.85643 1.42115 4.23466 1.30821 5.6579 1.30821ZM4.4376 2.6635V6.27762L7.59996 4.47056L4.4376 2.6635ZM4.88937 3.43203L6.69643 4.47056L4.88937 5.50909V3.43203Z" fill="#050519"/>
</svg>
